<svg width="16" height="16" viewBox="0 0 16 16" fill="none" xmlns="http://www.w3.org/2000/svg">
<path d="M9.33268 6.66667L7.99935 7.33333M7.99935 7.33333L6.66602 6.66667M7.99935 7.33333V9M13.3327 4.66667L11.9993 5.33333M13.3327 4.66667L11.9993 4M13.3327 4.66667V6.33333M9.33268 2.66667L7.99935 2L6.66602 2.66667M2.66602 4.66667L3.99935 4M2.66602 4.66667L3.99935 5.33333M2.66602 4.66667V6.33333M7.99935 14L6.66602 13.3333M7.99935 14L9.33268 13.3333M7.99935 14V12.3333M3.99935 12L2.66602 11.3333V9.66667M11.9993 12L13.3327 11.3333V9.66667" stroke="#545F71" stroke-width="2" stroke-linecap="round" stroke-linejoin="round"/>
</svg>
